<?xml version="1.0" encoding="UTF-8"?>
<svg xmlns="http://www.w3.org/2000/svg" xmlns:xlink="http://www.w3.org/1999/xlink" viewBox="0 0 48 48" width="48px" height="48px">
<g id="surface43138359">
<path style=" stroke:none;fill-rule:nonzero;fill:rgb(100%,100%,100%);fill-opacity:1;" d="M 24.007812 45.417969 C 23.433594 45.417969 22.863281 45.269531 22.359375 44.980469 L 17.121094 41.875 C 16.339844 41.4375 16.71875 41.28125 16.976562 41.195312 C 18.023438 40.828125 18.234375 40.746094 19.347656 40.113281 C 19.464844 40.046875 19.617188 40.070312 19.738281 40.140625 L 23.761719 42.53125 C 23.90625 42.609375 24.113281 42.609375 24.25 42.53125 L 39.945312 33.46875 C 40.089844 33.386719 40.1875 33.21875 40.1875 33.046875 L 40.1875 14.933594 C 40.1875 14.75 40.09375 14.589844 39.941406 14.5 L 24.253906 5.445312 C 24.109375 5.359375 23.914062 5.359375 23.769531 5.445312 L 8.082031 14.5 C 7.929688 14.585938 7.832031 14.753906 7.832031 14.925781 L 7.832031 33.039062 C 7.832031 33.214844 7.925781 33.378906 8.078125 33.460938 L 12.375 35.945312 C 14.710938 37.109375 16.136719 35.734375 16.136719 34.351562 L 16.136719 16.476562 C 16.136719 16.222656 16.335938 16.023438 16.59375 16.023438 L 18.578125 16.023438 C 18.828125 16.023438 19.03125 16.21875 19.03125 16.476562 L 19.03125 34.363281 C 19.03125 37.472656 17.335938 39.261719 14.382812 39.261719 C 13.476562 39.261719 12.761719 39.261719 10.765625 38.28125 L 6.648438 35.90625 C 5.628906 35.316406 5 34.214844 5 33.042969 L 5 14.929688 C 5 13.75 5.628906 12.648438 6.644531 12.066406 L 22.359375 3.003906 C 23.355469 2.441406 24.675781 2.441406 25.660156 3.003906 L 41.355469 12.070312 C 42.367188 12.65625 43 13.753906 43 14.933594 L 43 33.046875 C 43 34.222656 42.367188 35.316406 41.355469 35.90625 L 25.660156 44.972656 C 25.15625 45.261719 24.585938 45.410156 24.007812 45.410156 "/>
<path style=" stroke:none;fill-rule:nonzero;fill:rgb(100%,100%,100%);fill-opacity:1;" d="M 28.855469 32.9375 C 21.988281 32.9375 20.546875 29.785156 20.546875 27.140625 C 20.546875 26.890625 20.75 26.6875 21.003906 26.6875 L 23.03125 26.6875 C 23.253906 26.6875 23.445312 26.851562 23.480469 27.070312 C 23.785156 29.136719 24.695312 30.179688 28.851562 30.179688 C 32.15625 30.179688 33.566406 29.433594 33.566406 27.679688 C 33.566406 26.667969 33.164062 25.917969 28.023438 25.414062 C 23.726562 24.992188 21.070312 24.042969 21.070312 20.605469 C 21.070312 17.4375 23.742188 15.554688 28.21875 15.554688 C 33.242188 15.554688 35.734375 17.296875 36.046875 21.046875 C 36.058594 21.175781 36.011719 21.300781 35.925781 21.394531 C 35.839844 21.484375 35.71875 21.539062 35.59375 21.539062 L 33.554688 21.539062 C 33.339844 21.539062 33.15625 21.390625 33.113281 21.1875 C 32.621094 19.015625 31.433594 18.320312 28.210938 18.320312 C 24.597656 18.320312 24.179688 19.574219 24.179688 20.519531 C 24.179688 21.660156 24.671875 21.996094 29.546875 22.640625 C 34.371094 23.28125 36.660156 24.183594 36.660156 27.574219 C 36.660156 30.992188 33.808594 32.953125 28.835938 32.953125 "/>
</g>
</svg>
