<?xml version="1.0" encoding="UTF-8"?>
<svg xmlns="http://www.w3.org/2000/svg" xmlns:xlink="http://www.w3.org/1999/xlink" viewBox="0 0 50 50" width="50px" height="50px">
<g id="surface43095705">
<path style=" stroke:none;fill-rule:nonzero;fill:rgb(100%,100%,100%);fill-opacity:1;" d="M 25 2 C 12.316406 2 2 12.316406 2 25 C 2 37.683594 12.316406 48 25 48 C 37.683594 48 48 37.683594 48 25 C 48 12.316406 37.683594 2 25 2 Z M 30.648438 9.003906 C 34.472656 8.9375 37.621094 10.328125 38.28125 12.914062 C 39.222656 16.609375 36.015625 21.03125 31.90625 22.621094 C 28.238281 24.039062 25.203125 23.816406 23.957031 23.40625 C 22.539062 22.941406 21.710938 22.007812 21.507812 21.480469 C 21.429688 21.273438 21.289062 20.929688 21.507812 20.808594 C 21.640625 20.734375 21.691406 20.75 22.050781 21.144531 C 22.386719 21.515625 23.746094 22.519531 26.332031 22.230469 C 33.113281 21.46875 37.199219 16.199219 35.910156 13.363281 C 35.003906 11.378906 29.777344 10.484375 23.246094 13.738281 C 15.273438 17.710938 14.839844 20.988281 14.773438 22.230469 C 14.585938 25.652344 18.996094 27.449219 21.382812 29.996094 C 21.4375 30.054688 21.492188 30.117188 21.546875 30.175781 C 22.265625 29.910156 23.265625 29.757812 24.855469 29.730469 C 28.714844 29.664062 30.894531 32.207031 30.804688 34.480469 C 30.734375 36.269531 29.089844 37.007812 28.785156 37.058594 C 28.5625 37.097656 28.4375 37.105469 28.410156 36.929688 C 28.386719 36.8125 28.464844 36.753906 28.726562 36.59375 C 28.988281 36.433594 29.765625 35.902344 29.90625 34.929688 C 30.042969 33.960938 29.316406 31.640625 25.605469 31.207031 C 24.289062 31.054688 23.25 31.15625 22.363281 31.390625 C 23.007812 32.8125 23.132812 35.667969 21.652344 37.875 C 20.117188 40.167969 17.257812 41.558594 14.476562 40.78125 C 13.578125 40.53125 12.21875 38.679688 13.390625 36.089844 C 14.5 33.636719 19.238281 31.238281 19.886719 30.917969 L 19.886719 30.90625 C 17.691406 29.015625 12.347656 26.464844 11.59375 22.566406 C 11.378906 21.460938 11.898438 18.8125 15.148438 15.777344 C 17.878906 13.21875 21.679688 11.261719 25.191406 10.015625 C 27.035156 9.359375 28.910156 9.03125 30.648438 9.003906 Z M 20.800781 32.074219 C 20.734375 32.109375 20.667969 32.144531 20.605469 32.179688 L 20.609375 32.1875 C 20.609375 32.183594 18.402344 33.226562 16.867188 34.847656 C 15.441406 36.355469 15.042969 38.246094 15.839844 38.707031 C 16.578125 39.132812 18.292969 38.628906 19.523438 37.289062 C 19.925781 36.847656 20.257812 36.371094 20.503906 35.863281 C 20.550781 35.757812 20.597656 35.65625 20.640625 35.554688 C 20.679688 35.449219 20.722656 35.34375 20.757812 35.238281 C 21.074219 34.273438 21.105469 33.210938 20.800781 32.074219 Z M 20.800781 32.074219 "/>
</g>
</svg>
