<?xml version="1.0" encoding="UTF-8"?>
<svg xmlns="http://www.w3.org/2000/svg" xmlns:xlink="http://www.w3.org/1999/xlink" viewBox="0 0 30 30" width="30px" height="30px">
<g id="surface43157833">
<path style=" stroke:none;fill-rule:nonzero;fill:rgb(100%,100%,100%);fill-opacity:1;" d="M 13 3 C 10.789062 3 9 4.789062 9 7 L 9 8 L 14 8 C 14.550781 8 15 8.449219 15 9 C 15 9.550781 14.550781 10 14 10 L 7 10 C 4.789062 10 3 11.789062 3 14 L 3 18 C 3 20.210938 4.789062 22 7 22 L 8 22 L 8 17 C 8 15.347656 9.347656 14 11 14 L 19 14 C 19.550781 14 20 13.550781 20 13 L 20 7 C 20 4.789062 18.210938 3 16 3 Z M 12 5 C 12.550781 5 13 5.449219 13 6 C 13 6.550781 12.550781 7 12 7 C 11.449219 7 11 6.550781 11 6 C 11 5.449219 11.449219 5 12 5 Z M 22 8 L 22 13 C 22 14.652344 20.652344 16 19 16 L 11 16 C 10.449219 16 10 16.449219 10 17 L 10 23 C 10 25.210938 11.789062 27 14 27 L 17 27 C 19.210938 27 21 25.210938 21 23 L 21 22 L 16 22 C 15.449219 22 15 21.550781 15 21 C 15 20.449219 15.449219 20 16 20 L 23 20 C 25.210938 20 27 18.210938 27 16 L 27 12 C 27 9.789062 25.210938 8 23 8 Z M 18 23 C 18.550781 23 19 23.449219 19 24 C 19 24.550781 18.550781 25 18 25 C 17.449219 25 17 24.550781 17 24 C 17 23.449219 17.449219 23 18 23 Z M 18 23 "/>
</g>
</svg>
