<svg xmlns="http://www.w3.org/2000/svg" viewBox="0 0 32 32"><path fill="#FFF" d="M4 31.5C2.07 31.5.5 29.93.5 28V4C.5 2.07 2.07.5 4 .5h24c1.93 0 3.5 1.57 3.5 3.5v24c0 1.93-1.57 3.5-3.5 3.5H4z"/><path d="M28 1c1.654 0 3 1.346 3 3v24c0 1.654-1.346 3-3 3H4c-1.654 0-3-1.346-3-3V4c0-1.654 1.346-3 3-3h24m0-1H4C1.8 0 0 1.8 0 4v24c0 2.2 1.8 4 4 4h24c2.2 0 4-1.8 4-4V4c0-2.2-1.8-4-4-4z"/><path d="M27.438 29.437H4.562c-1.1 0-2-.9-2-2V4.562c0-1.1.9-2 2-2h22.875c1.1 0 2 .9 2 2v22.875c.001 1.1-.899 2-1.999 2z"/><path fill="#FFF" d="M19.541 25.757H14.34s.007-1.544 0-2.602c-3.56.766-4.553-1.951-4.553-1.951-.65-1.301-1.301-1.951-1.301-1.951-1.301-.773 0-.65 0-.65 1.301 0 1.951 1.301 1.951 1.301 1.142 1.938 3.173 1.626 3.903 1.301 0-.65.285-1.634.65-1.951-2.841-.32-5.207-1.951-5.207-5.204s.653-3.903 1.304-4.553c-.131-.321-.676-1.506.02-3.252 0 0 1.278 0 2.579 1.951.645-.645 2.602-.65 3.253-.65.649 0 2.607.006 3.251.65 1.301-1.951 2.582-1.951 2.582-1.951.695 1.747.152 2.932.02 3.252.65.65 1.301 1.301 1.301 4.553s-2.362 4.884-5.204 5.204c.366.317.65 1.437.65 1.951l.002 4.552z"/></svg>